<mxfile host="app.diagrams.net" agent="Mozilla/5.0 (Windows NT 10.0; Win64; x64) AppleWebKit/537.36 (KHTML, like Gecko) Chrome/138.0.0.0 Safari/537.36" version="28.0.7">
  <diagram name="Page-1" id="QV6ek-mitMRDJ9_h6cyj">
    <mxGraphModel dx="1042" dy="562" grid="1" gridSize="12" guides="1" tooltips="1" connect="1" arrows="1" fold="1" page="1" pageScale="1" pageWidth="850" pageHeight="1100" math="0" shadow="0">
      <root>
        <mxCell id="0" />
        <mxCell id="1" parent="0" />
        <mxCell id="uAuAnC4xKLFFhxEc4zfI-1" value="&lt;font size=&quot;3&quot;&gt;start&lt;/font&gt;" style="ellipse;whiteSpace=wrap;html=1;fillColor=#99FF99;strokeColor=#1A1A1A;" vertex="1" parent="1">
          <mxGeometry x="20" y="40" width="130" height="80" as="geometry" />
        </mxCell>
        <mxCell id="uAuAnC4xKLFFhxEc4zfI-2" value="new user?&lt;div&gt;run&lt;/div&gt;&lt;div&gt;create_dataset&lt;/div&gt;" style="rhombus;whiteSpace=wrap;html=1;fillColor=#FF0000;" vertex="1" parent="1">
          <mxGeometry x="20" y="160" width="130" height="80" as="geometry" />
        </mxCell>
        <mxCell id="uAuAnC4xKLFFhxEc4zfI-3" value="recognize the face&lt;div&gt;run face_recognize&lt;/div&gt;" style="shape=parallelogram;perimeter=parallelogramPerimeter;whiteSpace=wrap;html=1;fixedSize=1;fillColor=#CC00CC;" vertex="1" parent="1">
          <mxGeometry y="260" width="150" height="60" as="geometry" />
        </mxCell>
        <mxCell id="uAuAnC4xKLFFhxEc4zfI-4" value="face recognized" style="rhombus;whiteSpace=wrap;html=1;fillColor=#33FFFF;" vertex="1" parent="1">
          <mxGeometry x="20" y="340" width="120" height="80" as="geometry" />
        </mxCell>
        <mxCell id="uAuAnC4xKLFFhxEc4zfI-5" value="stored in csv file with&amp;nbsp;&lt;div&gt;registration number and&lt;/div&gt;&lt;div&gt;data.time of entry&lt;/div&gt;" style="shape=parallelogram;perimeter=parallelogramPerimeter;whiteSpace=wrap;html=1;fixedSize=1;fillColor=#6600CC;strokeColor=default;" vertex="1" parent="1">
          <mxGeometry x="7" y="444" width="161" height="60" as="geometry" />
        </mxCell>
        <mxCell id="uAuAnC4xKLFFhxEc4zfI-7" value="end" style="ellipse;whiteSpace=wrap;html=1;fillColor=#FF8000;strokeColor=default;" vertex="1" parent="1">
          <mxGeometry x="15" y="530" width="120" height="80" as="geometry" />
        </mxCell>
        <mxCell id="uAuAnC4xKLFFhxEc4zfI-8" value="give your photograph" style="rounded=0;whiteSpace=wrap;html=1;fillColor=#004C99;strokeColor=default;" vertex="1" parent="1">
          <mxGeometry x="480" y="150" width="210" height="60" as="geometry" />
        </mxCell>
        <mxCell id="uAuAnC4xKLFFhxEc4zfI-9" value="stores the face data in folder on&lt;div&gt;your name&lt;/div&gt;" style="rounded=0;whiteSpace=wrap;html=1;fillColor=#F19C99;" vertex="1" parent="1">
          <mxGeometry x="480" y="240" width="210" height="60" as="geometry" />
        </mxCell>
        <mxCell id="uAuAnC4xKLFFhxEc4zfI-12" value="" style="endArrow=classic;html=1;rounded=0;" edge="1" parent="1">
          <mxGeometry width="50" height="50" relative="1" as="geometry">
            <mxPoint x="84.5" y="120" as="sourcePoint" />
            <mxPoint x="84.5" y="150" as="targetPoint" />
          </mxGeometry>
        </mxCell>
        <mxCell id="uAuAnC4xKLFFhxEc4zfI-13" value="" style="endArrow=classic;html=1;rounded=0;" edge="1" parent="1">
          <mxGeometry width="50" height="50" relative="1" as="geometry">
            <mxPoint x="84.5" y="240" as="sourcePoint" />
            <mxPoint x="84.5" y="260" as="targetPoint" />
          </mxGeometry>
        </mxCell>
        <mxCell id="uAuAnC4xKLFFhxEc4zfI-14" value="" style="endArrow=classic;html=1;rounded=0;" edge="1" parent="1">
          <mxGeometry width="50" height="50" relative="1" as="geometry">
            <mxPoint x="79.5" y="320" as="sourcePoint" />
            <mxPoint x="79.5" y="340" as="targetPoint" />
          </mxGeometry>
        </mxCell>
        <mxCell id="uAuAnC4xKLFFhxEc4zfI-15" value="" style="endArrow=classic;html=1;rounded=0;" edge="1" parent="1">
          <mxGeometry width="50" height="50" relative="1" as="geometry">
            <mxPoint x="79.5" y="420" as="sourcePoint" />
            <mxPoint x="79.5" y="440" as="targetPoint" />
          </mxGeometry>
        </mxCell>
        <mxCell id="uAuAnC4xKLFFhxEc4zfI-16" value="" style="endArrow=classic;html=1;rounded=0;" edge="1" parent="1">
          <mxGeometry width="50" height="50" relative="1" as="geometry">
            <mxPoint x="79.5" y="500" as="sourcePoint" />
            <mxPoint x="79.5" y="530" as="targetPoint" />
          </mxGeometry>
        </mxCell>
        <mxCell id="uAuAnC4xKLFFhxEc4zfI-20" value="" style="endArrow=none;html=1;rounded=0;exitX=1;exitY=0.5;exitDx=0;exitDy=0;entryX=0;entryY=0.75;entryDx=0;entryDy=0;" edge="1" parent="1" source="uAuAnC4xKLFFhxEc4zfI-2" target="uAuAnC4xKLFFhxEc4zfI-8">
          <mxGeometry width="50" height="50" relative="1" as="geometry">
            <mxPoint x="245" y="200" as="sourcePoint" />
            <mxPoint x="425" y="200" as="targetPoint" />
          </mxGeometry>
        </mxCell>
        <mxCell id="uAuAnC4xKLFFhxEc4zfI-23" value="" style="endArrow=none;html=1;rounded=0;" edge="1" parent="1">
          <mxGeometry width="50" height="50" relative="1" as="geometry">
            <mxPoint x="580" y="210" as="sourcePoint" />
            <mxPoint x="580" y="240" as="targetPoint" />
          </mxGeometry>
        </mxCell>
        <mxCell id="uAuAnC4xKLFFhxEc4zfI-24" value="" style="endArrow=classic;html=1;rounded=0;exitX=-0.01;exitY=0.643;exitDx=0;exitDy=0;exitPerimeter=0;" edge="1" parent="1" source="uAuAnC4xKLFFhxEc4zfI-9">
          <mxGeometry width="50" height="50" relative="1" as="geometry">
            <mxPoint x="470" y="280" as="sourcePoint" />
            <mxPoint x="160" y="280" as="targetPoint" />
          </mxGeometry>
        </mxCell>
        <mxCell id="uAuAnC4xKLFFhxEc4zfI-25" value="" style="endArrow=none;html=1;rounded=0;" edge="1" parent="1">
          <mxGeometry width="50" height="50" relative="1" as="geometry">
            <mxPoint x="150" y="380" as="sourcePoint" />
            <mxPoint x="820" y="380" as="targetPoint" />
            <Array as="points">
              <mxPoint x="190" y="379.5" />
            </Array>
          </mxGeometry>
        </mxCell>
        <mxCell id="uAuAnC4xKLFFhxEc4zfI-26" value="" style="endArrow=none;html=1;rounded=0;" edge="1" parent="1">
          <mxGeometry width="50" height="50" relative="1" as="geometry">
            <mxPoint x="820" y="380" as="sourcePoint" />
            <mxPoint x="820" y="100" as="targetPoint" />
          </mxGeometry>
        </mxCell>
        <mxCell id="uAuAnC4xKLFFhxEc4zfI-27" value="" style="endArrow=none;html=1;rounded=0;" edge="1" parent="1">
          <mxGeometry width="50" height="50" relative="1" as="geometry">
            <mxPoint x="600" y="100" as="sourcePoint" />
            <mxPoint x="820" y="100" as="targetPoint" />
            <Array as="points">
              <mxPoint x="770" y="100" />
            </Array>
          </mxGeometry>
        </mxCell>
        <mxCell id="uAuAnC4xKLFFhxEc4zfI-29" value="" style="endArrow=classic;html=1;rounded=0;" edge="1" parent="1">
          <mxGeometry width="50" height="50" relative="1" as="geometry">
            <mxPoint x="600" y="100" as="sourcePoint" />
            <mxPoint x="600" y="150" as="targetPoint" />
          </mxGeometry>
        </mxCell>
        <mxCell id="uAuAnC4xKLFFhxEc4zfI-36" value="yes" style="text;strokeColor=none;align=center;fillColor=none;html=1;verticalAlign=middle;whiteSpace=wrap;rounded=0;" vertex="1" parent="1">
          <mxGeometry x="20" y="414" width="60" height="30" as="geometry" />
        </mxCell>
        <mxCell id="uAuAnC4xKLFFhxEc4zfI-37" value="yes" style="text;strokeColor=none;align=center;fillColor=none;html=1;verticalAlign=middle;whiteSpace=wrap;rounded=0;" vertex="1" parent="1">
          <mxGeometry x="384" y="165" width="60" height="30" as="geometry" />
        </mxCell>
        <mxCell id="uAuAnC4xKLFFhxEc4zfI-42" value="no" style="text;strokeColor=none;align=center;fillColor=none;html=1;verticalAlign=middle;whiteSpace=wrap;rounded=0;" vertex="1" parent="1">
          <mxGeometry x="408" y="348" width="60" height="30" as="geometry" />
        </mxCell>
        <mxCell id="uAuAnC4xKLFFhxEc4zfI-43" value="no" style="text;strokeColor=none;align=center;fillColor=none;html=1;verticalAlign=middle;whiteSpace=wrap;rounded=0;" vertex="1" parent="1">
          <mxGeometry x="20" y="230" width="60" height="30" as="geometry" />
        </mxCell>
      </root>
    </mxGraphModel>
  </diagram>
</mxfile>
